<?xml version="1.0" encoding="utf-8"?>
<svg version="1.1" id="Layer_1" xmlns="http://www.w3.org/2000/svg" xmlns:xlink="http://www.w3.org/1999/xlink" x="0px" y="0px"
	 viewBox="0 0 1661.804 1661.804" enable-background="new 0 0 1661.804 1661.804" xml:space="preserve">
<g>
	<g>
		<g>
			<polygon points="827.033,830.902 828.161,832.03 828.161,831.527 827.535,830.902 828.161,830.277 828.161,829.774 			"/>
			<polygon points="828.166,828.166 828.166,829.761 828.521,829.406 828.521,828.521 829.406,828.521 829.761,828.166 			"/>
			<polygon points="830.902,827.033 829.774,828.161 830.277,828.161 830.902,827.535 831.527,828.161 832.03,828.161 			"/>
			<polygon points="833.638,828.166 832.043,828.166 832.399,828.521 833.283,828.521 833.283,829.406 833.638,829.761 			"/>
			<polygon points="834.772,830.902 833.644,829.774 833.644,830.277 834.269,830.902 833.644,831.527 833.644,832.03 			"/>
			<polygon points="833.638,833.638 833.638,832.043 833.283,832.399 833.283,833.283 832.399,833.283 832.043,833.638 			"/>
			<polygon points="830.902,834.772 832.03,833.644 831.527,833.644 830.902,834.269 830.277,833.644 829.774,833.644 			"/>
			<polygon points="828.166,833.638 829.761,833.638 829.406,833.283 828.521,833.283 828.521,832.399 828.166,832.043 			"/>
		</g>
	</g>
	<g>
		<g>
			<polygon points="826.235,828.969 827.032,830.893 827.283,830.287 826.841,829.22 827.908,828.778 828.159,828.172 			"/>
			<polygon points="828.969,826.235 828.172,828.159 828.778,827.908 829.22,826.841 830.287,827.283 830.893,827.032 			"/>
			<polygon points="832.835,826.235 830.911,827.032 831.518,827.283 832.584,826.841 833.026,827.908 833.632,828.159 			"/>
			<polygon points="835.569,828.969 833.645,828.172 833.897,828.778 834.963,829.22 834.521,830.287 834.772,830.893 			"/>
			<polygon points="835.569,832.835 834.772,830.911 834.521,831.518 834.963,832.584 833.897,833.026 833.645,833.632 			"/>
			<polygon points="832.835,835.569 833.632,833.645 833.026,833.897 832.584,834.963 831.518,834.521 830.911,834.772 			"/>
			<polygon points="828.969,835.569 830.893,834.772 830.287,834.521 829.22,834.963 828.778,833.897 828.172,833.645 			"/>
			<polygon points="826.235,832.835 828.159,833.632 827.908,833.026 826.841,832.584 827.283,831.518 827.032,830.911 			"/>
		</g>
	</g>
	<g>
		<g>
			<polygon points="826.239,826.239 826.239,828.958 826.845,828.352 826.845,826.845 828.352,826.845 828.958,826.239 			"/>
			<polygon points="830.902,824.307 828.98,826.23 829.837,826.23 830.902,825.164 831.968,826.23 832.825,826.23 			"/>
			<polygon points="835.565,826.239 832.847,826.239 833.453,826.845 834.96,826.845 834.96,828.352 835.565,828.958 			"/>
			<polygon points="837.497,830.902 835.575,828.98 835.575,829.837 836.64,830.902 835.575,831.968 835.575,832.825 			"/>
			<polygon points="835.565,835.565 835.565,832.847 834.96,833.453 834.96,834.96 833.453,834.96 832.847,835.565 			"/>
			<polygon points="830.902,837.497 832.825,835.575 831.968,835.575 830.902,836.64 829.837,835.575 828.98,835.575 			"/>
			<polygon points="826.239,835.565 828.958,835.565 828.352,834.96 826.845,834.96 826.845,833.453 826.239,832.847 			"/>
			<polygon points="824.307,830.902 826.23,832.825 826.23,831.968 825.164,830.902 826.23,829.837 826.23,828.98 			"/>
		</g>
	</g>
	<g>
		<g>
			<polygon points="827.607,822.948 826.249,826.227 827.283,825.799 828.036,823.981 829.853,824.734 830.886,824.306 			"/>
			<polygon points="834.197,822.948 830.918,824.306 831.951,824.734 833.769,823.981 834.522,825.799 835.555,826.227 			"/>
			<polygon points="838.856,827.607 835.577,826.249 836.005,827.283 837.823,828.036 837.07,829.853 837.498,830.886 			"/>
			<polygon points="838.856,834.197 837.498,830.918 837.07,831.951 837.823,833.769 836.005,834.522 835.577,835.555 			"/>
			<polygon points="834.197,838.856 835.555,835.577 834.522,836.005 833.769,837.823 831.951,837.07 830.918,837.498 			"/>
			<polygon points="827.607,838.856 830.886,837.498 829.853,837.07 828.036,837.823 827.283,836.005 826.249,835.577 			"/>
			<polygon points="822.948,834.197 826.227,835.555 825.799,834.522 823.981,833.769 824.734,831.951 824.306,830.918 			"/>
			<polygon points="822.948,827.607 824.306,830.886 824.734,829.853 823.981,828.036 825.799,827.283 826.227,826.249 			"/>
		</g>
	</g>
	<g>
		<g>
			<polygon points="830.902,819.663 827.626,822.939 829.086,822.939 830.902,821.123 832.718,822.939 834.178,822.939 			"/>
			<polygon points="838.85,822.955 834.216,822.955 835.249,823.987 837.817,823.987 837.817,826.555 838.85,827.588 			"/>
			<polygon points="842.142,830.902 838.866,827.626 838.866,829.086 840.682,830.902 838.866,832.718 838.866,834.178 			"/>
			<polygon points="838.85,838.85 838.85,834.216 837.817,835.249 837.817,837.817 835.249,837.817 834.216,838.85 			"/>
			<polygon points="830.902,842.142 834.178,838.866 832.718,838.866 830.902,840.682 829.086,838.866 827.626,838.866 			"/>
			<polygon points="822.955,838.85 827.588,838.85 826.555,837.817 823.987,837.817 823.987,835.249 822.955,834.216 			"/>
			<polygon points="819.663,830.902 822.939,834.178 822.939,832.718 821.123,830.902 822.939,829.086 822.939,827.626 			"/>
			<polygon points="822.955,822.955 822.955,827.588 823.987,826.555 823.987,823.987 826.555,823.987 827.588,822.955 			"/>
		</g>
	</g>
	<g>
		<g>
			<polygon points="836.517,817.346 830.929,819.661 832.69,820.39 835.788,819.107 837.071,822.205 838.832,822.934 			"/>
			<polygon points="844.458,825.287 838.87,822.972 839.6,824.734 842.697,826.017 841.414,829.114 842.144,830.875 			"/>
			<polygon points="844.458,836.517 842.144,830.929 841.414,832.69 842.697,835.788 839.6,837.071 838.87,838.832 			"/>
			<polygon points="836.517,844.458 838.832,838.87 837.071,839.6 835.788,842.697 832.69,841.414 830.929,842.144 			"/>
			<polygon points="825.287,844.458 830.875,842.144 829.114,841.414 826.017,842.697 824.734,839.6 822.972,838.87 			"/>
			<polygon points="817.346,836.517 822.934,838.832 822.205,837.071 819.107,835.788 820.39,832.69 819.661,830.929 			"/>
			<polygon points="817.346,825.287 819.661,830.875 820.39,829.114 819.107,826.017 822.205,824.734 822.934,822.972 			"/>
			<polygon points="825.287,817.346 822.972,822.934 824.734,822.205 826.017,819.107 829.114,820.39 830.875,819.661 			"/>
		</g>
	</g>
	<g>
		<g>
			<polygon points="844.447,817.357 836.551,817.357 838.31,819.117 842.687,819.117 842.687,823.494 844.447,825.254 			"/>
			<polygon points="850.058,830.902 844.474,825.319 844.474,827.807 847.569,830.902 844.474,833.997 844.474,836.486 			"/>
			<polygon points="844.447,844.447 844.447,836.551 842.687,838.31 842.687,842.687 838.31,842.687 836.551,844.447 			"/>
			<polygon points="830.902,850.058 836.486,844.474 833.997,844.474 830.902,847.569 827.807,844.474 825.319,844.474 			"/>
			<polygon points="817.357,844.447 825.254,844.447 823.494,842.687 819.117,842.687 819.117,838.31 817.357,836.551 			"/>
			<polygon points="811.747,830.902 817.33,836.486 817.33,833.997 814.235,830.902 817.33,827.807 817.33,825.319 			"/>
			<polygon points="817.357,817.357 817.357,825.254 819.117,823.494 819.117,819.117 823.494,819.117 825.254,817.357 			"/>
			<polygon points="830.902,811.747 825.319,817.33 827.807,817.33 830.902,814.235 833.997,817.33 836.486,817.33 			"/>
		</g>
	</g>
	<g>
		<g>
			<polygon points="854.006,821.332 844.482,817.387 845.725,820.389 851.004,822.576 848.818,827.855 850.061,830.856 			"/>
			<polygon points="854.006,840.472 850.061,830.948 848.818,833.95 851.004,839.229 845.725,841.415 844.482,844.417 			"/>
			<polygon points="840.472,854.006 844.417,844.482 841.415,845.725 839.229,851.004 833.95,848.818 830.948,850.061 			"/>
			<polygon points="821.332,854.006 830.856,850.061 827.855,848.818 822.576,851.004 820.389,845.725 817.387,844.482 			"/>
			<polygon points="807.799,840.472 817.323,844.417 816.079,841.415 810.8,839.229 812.987,833.95 811.744,830.948 			"/>
			<polygon points="807.799,821.332 811.744,830.856 812.987,827.855 810.8,822.576 816.079,820.389 817.323,817.387 			"/>
			<polygon points="821.332,807.799 817.387,817.323 820.389,816.079 822.576,810.8 827.855,812.987 830.856,811.744 			"/>
			<polygon points="840.472,807.799 830.948,811.744 833.95,812.987 839.229,810.8 841.415,816.079 844.417,817.323 			"/>
		</g>
	</g>
	<g>
		<g>
			<polygon points="863.549,830.902 854.032,821.386 854.032,825.627 859.307,830.902 854.032,836.177 854.032,840.418 			"/>
			<polygon points="853.987,853.987 853.987,840.529 850.988,843.528 850.988,850.988 843.528,850.988 840.529,853.987 			"/>
			<polygon points="830.902,863.549 840.418,854.032 836.177,854.032 830.902,859.307 825.627,854.032 821.386,854.032 			"/>
			<polygon points="807.818,853.987 821.276,853.987 818.276,850.988 810.817,850.988 810.817,843.528 807.818,840.529 			"/>
			<polygon points="798.256,830.902 807.772,840.418 807.772,836.177 802.497,830.902 807.772,825.627 807.772,821.386 			"/>
			<polygon points="807.818,807.818 807.818,821.276 810.817,818.276 810.817,810.817 818.276,810.817 821.276,807.818 			"/>
			<polygon points="830.902,798.256 821.386,807.772 825.627,807.772 830.902,802.497 836.177,807.772 840.418,807.772 			"/>
			<polygon points="853.987,807.818 840.529,807.818 843.528,810.817 850.988,810.817 850.988,818.276 853.987,821.276 			"/>
		</g>
	</g>
	<g>
		<g>
			<polygon points="870.277,847.212 863.554,830.98 861.435,836.096 865.162,845.093 856.165,848.82 854.046,853.935 			"/>
			<polygon points="847.212,870.277 853.935,854.046 848.82,856.165 845.093,865.162 836.096,861.435 830.98,863.554 			"/>
			<polygon points="814.592,870.277 830.824,863.554 825.709,861.435 816.711,865.162 812.985,856.165 807.869,854.046 			"/>
			<polygon points="791.527,847.212 807.759,853.935 805.64,848.82 796.643,845.093 800.369,836.096 798.25,830.98 			"/>
			<polygon points="791.527,814.592 798.25,830.824 800.369,825.709 796.643,816.711 805.64,812.985 807.759,807.869 			"/>
			<polygon points="814.592,791.527 807.869,807.759 812.985,805.64 816.711,796.643 825.709,800.369 830.824,798.25 			"/>
			<polygon points="847.212,791.527 830.98,798.25 836.096,800.369 845.093,796.643 848.82,805.64 853.935,807.759 			"/>
			<polygon points="870.277,814.592 854.046,807.869 856.165,812.985 865.162,816.711 861.435,825.709 863.554,830.824 			"/>
		</g>
	</g>
	<g>
		<g>
			<polygon points="870.245,870.245 870.245,847.309 865.133,852.42 865.133,865.133 852.42,865.133 847.309,870.245 			"/>
			<polygon points="830.902,886.541 847.12,870.323 839.892,870.323 830.902,879.313 821.912,870.323 814.684,870.323 			"/>
			<polygon points="791.56,870.245 814.496,870.245 809.384,865.133 796.671,865.133 796.671,852.42 791.56,847.309 			"/>
			<polygon points="775.263,830.902 791.482,847.12 791.482,839.892 782.492,830.902 791.482,821.912 791.482,814.684 			"/>
			<polygon points="791.56,791.56 791.56,814.496 796.671,809.384 796.671,796.671 809.384,796.671 814.496,791.56 			"/>
			<polygon points="830.902,775.263 814.684,791.482 821.912,791.482 830.902,782.492 839.892,791.482 847.12,791.482 			"/>
			<polygon points="870.245,791.56 847.309,791.56 852.42,796.671 865.133,796.671 865.133,809.384 870.245,814.496 			"/>
			<polygon points="886.541,830.902 870.323,814.684 870.323,821.912 879.313,830.902 870.323,839.892 870.323,847.12 			"/>
		</g>
	</g>
	<g>
		<g>
			<polygon points="858.699,898.009 870.157,870.345 861.439,873.957 855.087,889.29 839.754,882.939 831.035,886.55 			"/>
			<polygon points="803.106,898.009 830.769,886.55 822.051,882.939 806.717,889.29 800.366,873.957 791.647,870.345 			"/>
			<polygon points="763.796,858.699 791.459,870.157 787.848,861.439 772.514,855.087 778.865,839.754 775.254,831.035 			"/>
			<polygon points="763.796,803.106 775.254,830.769 778.865,822.051 772.514,806.717 787.848,800.366 791.459,791.647 			"/>
			<polygon points="803.106,763.796 791.647,791.459 800.366,787.848 806.717,772.514 822.051,778.865 830.769,775.254 			"/>
			<polygon points="858.699,763.796 831.035,775.254 839.754,778.865 855.087,772.514 861.439,787.848 870.157,791.459 			"/>
			<polygon points="898.009,803.106 870.345,791.647 873.957,800.366 889.29,806.717 882.939,822.051 886.55,830.769 			"/>
			<polygon points="898.009,858.699 886.55,831.035 882.939,839.754 889.29,855.087 873.957,861.439 870.345,870.157 			"/>
		</g>
	</g>
	<g>
		<g>
			<polygon points="830.902,925.727 858.543,898.086 846.223,898.086 830.902,913.407 815.581,898.086 803.262,898.086 			"/>
			<polygon points="763.851,897.953 802.941,897.953 794.229,889.242 772.562,889.242 772.562,867.575 763.851,858.864 			"/>
			<polygon points="736.078,830.902 763.718,858.543 763.718,846.223 748.397,830.902 763.718,815.581 763.718,803.262 			"/>
			<polygon points="763.851,763.851 763.851,802.941 772.562,794.229 772.562,772.562 794.229,772.562 802.941,763.851 			"/>
			<polygon points="830.902,736.078 803.262,763.718 815.581,763.718 830.902,748.397 846.223,763.718 858.543,763.718 			"/>
			<polygon points="897.953,763.851 858.864,763.851 867.575,772.562 889.242,772.562 889.242,794.229 897.953,802.941 			"/>
			<polygon points="925.727,830.902 898.086,803.262 898.086,815.581 913.407,830.902 898.086,846.223 898.086,858.543 			"/>
			<polygon points="897.953,897.953 897.953,858.864 889.242,867.575 889.242,889.242 867.575,889.242 858.864,897.953 			"/>
		</g>
	</g>
	<g>
		<g>
			<polygon points="783.529,945.271 830.675,925.742 815.817,919.588 789.684,930.412 778.859,904.279 764.001,898.125 			"/>
			<polygon points="716.534,878.275 763.68,897.804 757.525,882.945 731.392,872.121 742.217,845.988 736.062,831.129 			"/>
			<polygon points="716.534,783.529 736.062,830.675 742.217,815.817 731.392,789.684 757.525,778.859 763.68,764.001 			"/>
			<polygon points="783.529,716.534 764.001,763.68 778.859,757.525 789.684,731.392 815.817,742.217 830.675,736.062 			"/>
			<polygon points="878.275,716.534 831.129,736.062 845.988,742.217 872.121,731.392 882.945,757.525 897.804,763.68 			"/>
			<polygon points="945.271,783.529 898.125,764.001 904.279,778.859 930.412,789.684 919.588,815.817 925.742,830.675 			"/>
			<polygon points="945.271,878.275 925.742,831.129 919.588,845.988 930.412,872.121 904.279,882.945 898.125,897.804 			"/>
			<polygon points="878.275,945.271 897.804,898.125 882.945,904.279 872.121,930.412 845.988,919.588 831.129,925.742 			"/>
		</g>
	</g>
	<g>
		<g>
			<polygon points="716.628,945.176 783.248,945.176 768.401,930.33 731.474,930.33 731.474,893.403 716.628,878.557 			"/>
			<polygon points="669.294,830.902 716.401,878.009 716.401,857.014 690.29,830.902 716.401,804.791 716.401,783.795 			"/>
			<polygon points="716.628,716.628 716.628,783.248 731.474,768.401 731.474,731.474 768.401,731.474 783.248,716.628 			"/>
			<polygon points="830.902,669.294 783.795,716.401 804.791,716.401 830.902,690.29 857.014,716.401 878.009,716.401 			"/>
			<polygon points="945.176,716.628 878.557,716.628 893.403,731.474 930.33,731.474 930.33,768.401 945.176,783.248 			"/>
			<polygon points="992.51,830.902 945.403,783.795 945.403,804.791 971.514,830.902 945.403,857.014 945.403,878.009 			"/>
			<polygon points="945.176,945.176 945.176,878.557 930.33,893.403 930.33,930.33 893.403,930.33 878.557,945.176 			"/>
			<polygon points="830.902,992.51 878.009,945.403 857.014,945.403 830.902,971.514 804.791,945.403 783.795,945.403 			"/>
		</g>
	</g>
	<g>
		<g>
			<polygon points="635.985,911.639 716.336,944.922 705.847,919.599 661.308,901.15 679.757,856.612 669.268,831.289 			"/>
			<polygon points="635.985,750.165 669.268,830.515 679.757,805.192 661.308,760.654 705.847,742.206 716.336,716.883 			"/>
			<polygon points="750.165,635.985 716.883,716.336 742.206,705.847 760.654,661.308 805.192,679.757 830.515,669.268 			"/>
			<polygon points="911.639,635.985 831.289,669.268 856.612,679.757 901.15,661.308 919.599,705.847 944.922,716.336 			"/>
			<polygon points="1025.819,750.165 945.469,716.883 955.958,742.206 1000.496,760.654 982.048,805.192 992.537,830.515 			"/>
			<polygon points="1025.819,911.639 992.537,831.289 982.048,856.612 1000.496,901.15 955.958,919.599 945.469,944.922 			"/>
			<polygon points="911.639,1025.819 944.922,945.469 919.599,955.958 901.15,1000.496 856.612,982.048 831.289,992.537 			"/>
			<polygon points="750.165,1025.819 830.515,992.537 805.192,982.048 760.654,1000.496 742.206,955.958 716.883,945.469 			"/>
		</g>
	</g>
	<g>
		<g>
			<polygon points="555.476,830.902 635.76,911.186 635.76,875.404 591.259,830.902 635.76,786.401 635.76,750.618 			"/>
			<polygon points="636.147,636.147 636.147,749.685 661.449,724.383 661.449,661.449 724.383,661.449 749.685,636.147 			"/>
			<polygon points="830.902,555.476 750.618,635.76 786.401,635.76 830.902,591.259 875.404,635.76 911.186,635.76 			"/>
			<polygon points="1025.658,636.147 912.119,636.147 937.421,661.449 1000.356,661.449 1000.356,724.383 1025.658,749.685 			"/>
			<polygon points="1106.328,830.902 1026.044,750.618 1026.044,786.401 1070.546,830.902 1026.044,875.404 1026.044,911.186 			"/>
			<polygon points="1025.658,1025.658 1025.658,912.119 1000.356,937.421 1000.356,1000.356 937.421,1000.356 912.119,1025.658 			
				"/>
			<polygon points="830.902,1106.328 911.186,1026.044 875.404,1026.044 830.902,1070.546 786.401,1026.044 750.618,1026.044 			"/>
			<polygon points="636.147,1025.658 749.685,1025.658 724.383,1000.356 661.449,1000.356 661.449,937.421 636.147,912.119 			"/>
		</g>
	</g>
	<g>
		<g>
			<polygon points="498.708,693.303 555.431,830.243 573.307,787.085 541.866,711.179 617.772,679.738 635.648,636.581 			"/>
			<polygon points="693.303,498.708 636.581,635.648 679.738,617.772 711.179,541.866 787.085,573.307 830.243,555.431 			"/>
			<polygon points="968.501,498.708 831.562,555.431 874.719,573.307 950.625,541.866 982.066,617.772 1025.224,635.648 			"/>
			<polygon points="1163.096,693.303 1026.156,636.581 1044.033,679.738 1119.938,711.179 1088.497,787.085 1106.374,830.243 			"/>
			<polygon points="1163.096,968.501 1106.374,831.562 1088.497,874.719 1119.938,950.625 1044.033,982.066 1026.156,1025.224 			
				"/>
			<polygon points="968.501,1163.096 1025.224,1026.156 982.066,1044.033 950.625,1119.938 874.719,1088.497 831.562,1106.374 			
				"/>
			<polygon points="693.303,1163.096 830.243,1106.374 787.085,1088.497 711.179,1119.938 679.738,1044.033 636.581,1026.156 			"/>
			<polygon points="498.708,968.501 635.648,1025.224 617.772,982.066 541.866,950.625 573.307,874.719 555.431,831.562 			"/>
		</g>
	</g>
	<g>
		<g>
			<polygon points="498.983,498.983 498.983,692.485 542.105,649.363 542.105,542.105 649.363,542.105 692.485,498.983 			"/>
			<polygon points="830.902,361.497 694.076,498.324 755.059,498.324 830.902,422.481 906.745,498.324 967.729,498.324 			"/>
			<polygon points="1162.822,498.983 969.319,498.983 1012.441,542.105 1119.7,542.105 1119.7,649.363 1162.822,692.485 			"/>
			<polygon points="1300.307,830.902 1163.48,694.076 1163.48,755.059 1239.323,830.902 1163.48,906.745 1163.48,967.729 			"/>
			<polygon points="1162.822,1162.822 1162.822,969.319 1119.7,1012.441 1119.7,1119.7 1012.441,1119.7 969.319,1162.822 			"/>
			<polygon points="830.902,1300.307 967.729,1163.48 906.745,1163.48 830.902,1239.323 755.059,1163.48 694.076,1163.48 			"/>
			<polygon points="498.983,1162.822 692.485,1162.822 649.363,1119.7 542.105,1119.7 542.105,1012.441 498.983,969.319 			"/>
			<polygon points="361.497,830.902 498.324,967.729 498.324,906.745 422.481,830.902 498.324,755.059 498.324,694.076 			"/>
		</g>
	</g>
	<g>
		<g>
			<polygon points="596.394,264.749 499.723,498.134 573.276,467.667 626.86,338.302 756.226,391.887 829.779,361.42 			"/>
			<polygon points="1065.411,264.749 832.026,361.42 905.579,391.887 1034.944,338.302 1088.529,467.667 1162.082,498.134 			"/>
			<polygon points="1397.056,596.394 1163.671,499.723 1194.137,573.276 1323.503,626.86 1269.918,756.226 1300.384,829.779 			"/>
			<polygon points="1397.056,1065.411 1300.384,832.026 1269.918,905.579 1323.503,1034.944 1194.137,1088.529 1163.671,1162.082 
							"/>
			<polygon points="1065.411,1397.056 1162.082,1163.671 1088.529,1194.137 1034.944,1323.503 905.579,1269.918 832.026,1300.384 
							"/>
			<polygon points="596.394,1397.056 829.779,1300.384 756.226,1269.918 626.86,1323.503 573.276,1194.137 499.723,1163.671 			"/>
			<polygon points="264.749,1065.411 498.134,1162.082 467.667,1088.529 338.302,1034.944 391.887,905.579 361.42,832.026 			"/>
			<polygon points="264.749,596.394 361.42,829.779 391.887,756.226 338.302,626.86 467.667,573.276 498.134,499.723 			"/>
		</g>
	</g>
	<g>
		<g>
			<polygon points="830.902,30.902 597.71,264.094 701.644,264.094 830.902,134.836 960.16,264.094 1064.094,264.094 			"/>
			<polygon points="1396.588,265.217 1066.805,265.217 1140.297,338.709 1323.095,338.709 1323.095,521.508 1396.588,595 			"/>
			<polygon points="1630.902,830.902 1397.71,597.71 1397.71,701.644 1526.969,830.902 1397.71,960.16 1397.71,1064.094 			"/>
			<polygon points="1396.588,1396.588 1396.588,1066.805 1323.095,1140.297 1323.095,1323.095 1140.297,1323.095 1066.805,1396.588 
							"/>
			<polygon points="830.902,1630.902 1064.094,1397.71 960.16,1397.71 830.902,1526.969 701.644,1397.71 597.71,1397.71 			"/>
			<polygon points="265.217,1396.588 595,1396.588 521.508,1323.095 338.709,1323.095 338.709,1140.297 265.217,1066.805 			"/>
			<polygon points="30.902,830.902 264.094,1064.094 264.094,960.16 134.836,830.902 264.094,701.644 264.094,597.71 			"/>
			<polygon points="265.217,265.217 265.217,595 338.709,521.508 338.709,338.709 521.508,338.709 595,265.217 			"/>
		</g>
	</g>
</g>
</svg>
